<svg class="ldp-dust" width="192px"  height="200px"  xmlns="http://www.w3.org/2000/svg" xmlns:xlink="http://www.w3.org/1999/xlink" preserveAspectRatio="xMidYMid" style="background: rgba(0, 0, 0, 0) none repeat scroll 0% 0%;"><defs>
  <pattern id="ldp-a76acea940ac18" x="0" y="0" width="192" height="200" patternUnits="userSpaceOnUse">
    <g>
<animateTransform attributeName="transform" type="translate" values="0 0;0 200" keyTimes="0;1" repeatCount="indefinite" dur="5.6s" begin="-0.799730594829095s"></animateTransform>
<g transform="translate(35.54303459731664 -13.61617561361993)"><g transform="scale(0.5359057742639144)">
<path d="M3.1,3.7C3.9,2.9,5,2.5,5.8,1.8c0.3-0.3,0.6-0.6,1-0.7c0.6-0.2,1.2,0.1,1.7,0C8,3.3,8.2,5.6,8.2,7.8c0,0,0,0.1,0,0.1 c0,0.1-0.1,0.1-0.2,0.1c-1.3,0.5-2.7,0.3-4,0.8C3.9,8.9,3.8,9,3.6,9C3.4,9,3.3,8.9,3.2,8.7C2.9,8.4,1.7,7.1,1.4,7.3 C1.6,7,1.7,6.6,1.8,6.2L3.1,3.7z" fill="#fff" transform="translate(-5 -5)"></path>
</g></g></g><g>
<animateTransform attributeName="transform" type="translate" values="0 0;0 200" keyTimes="0;1" repeatCount="indefinite" dur="5.6s" begin="-0.799730594829095s"></animateTransform>
<g transform="translate(35.54303459731664 186.38382438638007)"><g transform="scale(0.5359057742639144)">
<path d="M3.1,3.7C3.9,2.9,5,2.5,5.8,1.8c0.3-0.3,0.6-0.6,1-0.7c0.6-0.2,1.2,0.1,1.7,0C8,3.3,8.2,5.6,8.2,7.8c0,0,0,0.1,0,0.1 c0,0.1-0.1,0.1-0.2,0.1c-1.3,0.5-2.7,0.3-4,0.8C3.9,8.9,3.8,9,3.6,9C3.4,9,3.3,8.9,3.2,8.7C2.9,8.4,1.7,7.1,1.4,7.3 C1.6,7,1.7,6.6,1.8,6.2L3.1,3.7z" fill="#fff" transform="translate(-5 -5)"></path>
</g></g></g><g>
<animateTransform attributeName="transform" type="translate" values="0 0;0 200" keyTimes="0;1" repeatCount="indefinite" dur="5.6s" begin="-0.799730594829095s"></animateTransform>
<g transform="translate(35.54303459731664 386.38382438638007)"><g transform="scale(0.5359057742639144)">
<path d="M3.1,3.7C3.9,2.9,5,2.5,5.8,1.8c0.3-0.3,0.6-0.6,1-0.7c0.6-0.2,1.2,0.1,1.7,0C8,3.3,8.2,5.6,8.2,7.8c0,0,0,0.1,0,0.1 c0,0.1-0.1,0.1-0.2,0.1c-1.3,0.5-2.7,0.3-4,0.8C3.9,8.9,3.8,9,3.6,9C3.4,9,3.3,8.9,3.2,8.7C2.9,8.4,1.7,7.1,1.4,7.3 C1.6,7,1.7,6.6,1.8,6.2L3.1,3.7z" fill="#fff" transform="translate(-5 -5)"></path>
</g></g></g><g>
<animateTransform attributeName="transform" type="translate" values="0 0;0 200" keyTimes="0;1" repeatCount="indefinite" dur="5.6s" begin="-2.20616368834132s"></animateTransform>
<g transform="translate(68.20489939142527 -131.1353321139258)"><g transform="scale(0.2654832628473608)">
<path d="M1.8,8.9c0.6-1.3,1.2-2.6,1.8-4c0.4-0.8,0.8-1.7,1.3-2.4S6.2,1.2,7.1,1c0.4,0.8,1,1.5,1.1,2.4C8.3,4.1,8,4.9,7.6,5.6 S6.6,6.8,6,7.3C5.6,7.8,5.1,8.2,4.5,8.4C3.7,8.8,2.7,8.6,1.9,9L1.8,8.9z" fill="#fff" transform="translate(-5 -5)"></path>
</g></g></g><g>
<animateTransform attributeName="transform" type="translate" values="0 0;0 200" keyTimes="0;1" repeatCount="indefinite" dur="5.6s" begin="-2.20616368834132s"></animateTransform>
<g transform="translate(68.20489939142527 68.8646678860742)"><g transform="scale(0.2654832628473608)">
<path d="M1.8,8.9c0.6-1.3,1.2-2.6,1.8-4c0.4-0.8,0.8-1.7,1.3-2.4S6.2,1.2,7.1,1c0.4,0.8,1,1.5,1.1,2.4C8.3,4.1,8,4.9,7.6,5.6 S6.6,6.8,6,7.3C5.6,7.8,5.1,8.2,4.5,8.4C3.7,8.8,2.7,8.6,1.9,9L1.8,8.9z" fill="#fff" transform="translate(-5 -5)"></path>
</g></g></g><g>
<animateTransform attributeName="transform" type="translate" values="0 0;0 200" keyTimes="0;1" repeatCount="indefinite" dur="5.6s" begin="-2.20616368834132s"></animateTransform>
<g transform="translate(68.20489939142527 268.8646678860742)"><g transform="scale(0.2654832628473608)">
<path d="M1.8,8.9c0.6-1.3,1.2-2.6,1.8-4c0.4-0.8,0.8-1.7,1.3-2.4S6.2,1.2,7.1,1c0.4,0.8,1,1.5,1.1,2.4C8.3,4.1,8,4.9,7.6,5.6 S6.6,6.8,6,7.3C5.6,7.8,5.1,8.2,4.5,8.4C3.7,8.8,2.7,8.6,1.9,9L1.8,8.9z" fill="#fff" transform="translate(-5 -5)"></path>
</g></g></g><g>
<animateTransform attributeName="transform" type="translate" values="0 0;0 200" keyTimes="0;1" repeatCount="indefinite" dur="1.4s" begin="-1.9496138758285635s"></animateTransform>
<g transform="translate(75.9904300950675 -35.28166873515784)"><g transform="scale(0.15977400645571394)">
<path d="M1.8,8.9c0.6-1.3,1.2-2.6,1.8-4c0.4-0.8,0.8-1.7,1.3-2.4S6.2,1.2,7.1,1c0.4,0.8,1,1.5,1.1,2.4C8.3,4.1,8,4.9,7.6,5.6 S6.6,6.8,6,7.3C5.6,7.8,5.1,8.2,4.5,8.4C3.7,8.8,2.7,8.6,1.9,9L1.8,8.9z" fill="#f9f9f9" transform="translate(-5 -5)"></path>
</g></g></g><g>
<animateTransform attributeName="transform" type="translate" values="0 0;0 200" keyTimes="0;1" repeatCount="indefinite" dur="1.4s" begin="-1.9496138758285635s"></animateTransform>
<g transform="translate(75.9904300950675 164.71833126484216)"><g transform="scale(0.15977400645571394)">
<path d="M1.8,8.9c0.6-1.3,1.2-2.6,1.8-4c0.4-0.8,0.8-1.7,1.3-2.4S6.2,1.2,7.1,1c0.4,0.8,1,1.5,1.1,2.4C8.3,4.1,8,4.9,7.6,5.6 S6.6,6.8,6,7.3C5.6,7.8,5.1,8.2,4.5,8.4C3.7,8.8,2.7,8.6,1.9,9L1.8,8.9z" fill="#f9f9f9" transform="translate(-5 -5)"></path>
</g></g></g><g>
<animateTransform attributeName="transform" type="translate" values="0 0;0 200" keyTimes="0;1" repeatCount="indefinite" dur="1.4s" begin="-1.9496138758285635s"></animateTransform>
<g transform="translate(75.9904300950675 364.71833126484216)"><g transform="scale(0.15977400645571394)">
<path d="M1.8,8.9c0.6-1.3,1.2-2.6,1.8-4c0.4-0.8,0.8-1.7,1.3-2.4S6.2,1.2,7.1,1c0.4,0.8,1,1.5,1.1,2.4C8.3,4.1,8,4.9,7.6,5.6 S6.6,6.8,6,7.3C5.6,7.8,5.1,8.2,4.5,8.4C3.7,8.8,2.7,8.6,1.9,9L1.8,8.9z" fill="#f9f9f9" transform="translate(-5 -5)"></path>
</g></g></g><g>
<animateTransform attributeName="transform" type="translate" values="0 0;0 200" keyTimes="0;1" repeatCount="indefinite" dur="1.4s" begin="-2.8943943557229566s"></animateTransform>
<g transform="translate(57.54863626118181 -123.91510405369634)"><g transform="scale(0.8595254461930797)">
<path d="M1,4.7C1,4,1.2,3.4,1.4,2.8C1.6,2.5,1.7,2.1,2,1.9c0.3-0.2,0.6-0.4,0.9-0.5C4.3,0.9,5.8,1,7.3,1.3c0.6,0.2,1.3,0.5,1.6,1.1 C9.1,2.9,9,3.5,8.9,4C8.7,5,8.6,6,8.6,7c0,0.1,0,0.2,0,0.3C8.5,7.4,8.3,7.5,8.2,7.6C7.6,7.8,7.1,8.1,6.5,8.3 C5.9,8.6,5.3,8.9,4.7,8.9c-0.4,0-0.8,0-1.2-0.1C2.7,8.8,1,8.7,1,8.7L1,6L1,4.7z" fill="#f9f9f9" transform="translate(-5 -5)"></path>
</g></g></g><g>
<animateTransform attributeName="transform" type="translate" values="0 0;0 200" keyTimes="0;1" repeatCount="indefinite" dur="1.4s" begin="-2.8943943557229566s"></animateTransform>
<g transform="translate(57.54863626118181 76.08489594630366)"><g transform="scale(0.8595254461930797)">
<path d="M1,4.7C1,4,1.2,3.4,1.4,2.8C1.6,2.5,1.7,2.1,2,1.9c0.3-0.2,0.6-0.4,0.9-0.5C4.3,0.9,5.8,1,7.3,1.3c0.6,0.2,1.3,0.5,1.6,1.1 C9.1,2.9,9,3.5,8.9,4C8.7,5,8.6,6,8.6,7c0,0.1,0,0.2,0,0.3C8.5,7.4,8.3,7.5,8.2,7.6C7.6,7.8,7.1,8.1,6.5,8.3 C5.9,8.6,5.3,8.9,4.7,8.9c-0.4,0-0.8,0-1.2-0.1C2.7,8.8,1,8.7,1,8.7L1,6L1,4.7z" fill="#f9f9f9" transform="translate(-5 -5)"></path>
</g></g></g><g>
<animateTransform attributeName="transform" type="translate" values="0 0;0 200" keyTimes="0;1" repeatCount="indefinite" dur="1.4s" begin="-2.8943943557229566s"></animateTransform>
<g transform="translate(57.54863626118181 276.0848959463037)"><g transform="scale(0.8595254461930797)">
<path d="M1,4.7C1,4,1.2,3.4,1.4,2.8C1.6,2.5,1.7,2.1,2,1.9c0.3-0.2,0.6-0.4,0.9-0.5C4.3,0.9,5.8,1,7.3,1.3c0.6,0.2,1.3,0.5,1.6,1.1 C9.1,2.9,9,3.5,8.9,4C8.7,5,8.6,6,8.6,7c0,0.1,0,0.2,0,0.3C8.5,7.4,8.3,7.5,8.2,7.6C7.6,7.8,7.1,8.1,6.5,8.3 C5.9,8.6,5.3,8.9,4.7,8.9c-0.4,0-0.8,0-1.2-0.1C2.7,8.8,1,8.7,1,8.7L1,6L1,4.7z" fill="#f9f9f9" transform="translate(-5 -5)"></path>
</g></g></g><g>
<animateTransform attributeName="transform" type="translate" values="0 0;0 200" keyTimes="0;1" repeatCount="indefinite" dur="1.8666666666666665s" begin="-0.294844083182525s"></animateTransform>
<g transform="translate(175.8189241703812 -182.354022099234)"><g transform="scale(0.14377438945281404)">
<path d="M3.1,3.7C3.9,2.9,5,2.5,5.8,1.8c0.3-0.3,0.6-0.6,1-0.7c0.6-0.2,1.2,0.1,1.7,0C8,3.3,8.2,5.6,8.2,7.8c0,0,0,0.1,0,0.1 c0,0.1-0.1,0.1-0.2,0.1c-1.3,0.5-2.7,0.3-4,0.8C3.9,8.9,3.8,9,3.6,9C3.4,9,3.3,8.9,3.2,8.7C2.9,8.4,1.7,7.1,1.4,7.3 C1.6,7,1.7,6.6,1.8,6.2L3.1,3.7z" fill="#f9f9f9" transform="translate(-5 -5)"></path>
</g></g></g><g>
<animateTransform attributeName="transform" type="translate" values="0 0;0 200" keyTimes="0;1" repeatCount="indefinite" dur="1.8666666666666665s" begin="-0.294844083182525s"></animateTransform>
<g transform="translate(175.8189241703812 17.64597790076602)"><g transform="scale(0.14377438945281404)">
<path d="M3.1,3.7C3.9,2.9,5,2.5,5.8,1.8c0.3-0.3,0.6-0.6,1-0.7c0.6-0.2,1.2,0.1,1.7,0C8,3.3,8.2,5.6,8.2,7.8c0,0,0,0.1,0,0.1 c0,0.1-0.1,0.1-0.2,0.1c-1.3,0.5-2.7,0.3-4,0.8C3.9,8.9,3.8,9,3.6,9C3.4,9,3.3,8.9,3.2,8.7C2.9,8.4,1.7,7.1,1.4,7.3 C1.6,7,1.7,6.6,1.8,6.2L3.1,3.7z" fill="#f9f9f9" transform="translate(-5 -5)"></path>
</g></g></g><g>
<animateTransform attributeName="transform" type="translate" values="0 0;0 200" keyTimes="0;1" repeatCount="indefinite" dur="1.8666666666666665s" begin="-0.294844083182525s"></animateTransform>
<g transform="translate(175.8189241703812 217.645977900766)"><g transform="scale(0.14377438945281404)">
<path d="M3.1,3.7C3.9,2.9,5,2.5,5.8,1.8c0.3-0.3,0.6-0.6,1-0.7c0.6-0.2,1.2,0.1,1.7,0C8,3.3,8.2,5.6,8.2,7.8c0,0,0,0.1,0,0.1 c0,0.1-0.1,0.1-0.2,0.1c-1.3,0.5-2.7,0.3-4,0.8C3.9,8.9,3.8,9,3.6,9C3.4,9,3.3,8.9,3.2,8.7C2.9,8.4,1.7,7.1,1.4,7.3 C1.6,7,1.7,6.6,1.8,6.2L3.1,3.7z" fill="#f9f9f9" transform="translate(-5 -5)"></path>
</g></g></g><g>
<animateTransform attributeName="transform" type="translate" values="0 0;0 200" keyTimes="0;1" repeatCount="indefinite" dur="1.8666666666666665s" begin="-2.8680938012072743s"></animateTransform>
<g transform="translate(6.569272396216929 -24.711681059898865)"><g transform="scale(0.4386675052214151)">
<path d="M1,4.7C1,4,1.2,3.4,1.4,2.8C1.6,2.5,1.7,2.1,2,1.9c0.3-0.2,0.6-0.4,0.9-0.5C4.3,0.9,5.8,1,7.3,1.3c0.6,0.2,1.3,0.5,1.6,1.1 C9.1,2.9,9,3.5,8.9,4C8.7,5,8.6,6,8.6,7c0,0.1,0,0.2,0,0.3C8.5,7.4,8.3,7.5,8.2,7.6C7.6,7.8,7.1,8.1,6.5,8.3 C5.9,8.6,5.3,8.9,4.7,8.9c-0.4,0-0.8,0-1.2-0.1C2.7,8.8,1,8.7,1,8.7L1,6L1,4.7z" fill="#f9f9f9" transform="translate(-5 -5)"></path>
</g></g></g><g>
<animateTransform attributeName="transform" type="translate" values="0 0;0 200" keyTimes="0;1" repeatCount="indefinite" dur="1.8666666666666665s" begin="-2.8680938012072743s"></animateTransform>
<g transform="translate(6.569272396216929 175.28831894010114)"><g transform="scale(0.4386675052214151)">
<path d="M1,4.7C1,4,1.2,3.4,1.4,2.8C1.6,2.5,1.7,2.1,2,1.9c0.3-0.2,0.6-0.4,0.9-0.5C4.3,0.9,5.8,1,7.3,1.3c0.6,0.2,1.3,0.5,1.6,1.1 C9.1,2.9,9,3.5,8.9,4C8.7,5,8.6,6,8.6,7c0,0.1,0,0.2,0,0.3C8.5,7.4,8.3,7.5,8.2,7.6C7.6,7.8,7.1,8.1,6.5,8.3 C5.9,8.6,5.3,8.9,4.7,8.9c-0.4,0-0.8,0-1.2-0.1C2.7,8.8,1,8.7,1,8.7L1,6L1,4.7z" fill="#f9f9f9" transform="translate(-5 -5)"></path>
</g></g></g><g>
<animateTransform attributeName="transform" type="translate" values="0 0;0 200" keyTimes="0;1" repeatCount="indefinite" dur="1.8666666666666665s" begin="-2.8680938012072743s"></animateTransform>
<g transform="translate(6.569272396216929 375.28831894010114)"><g transform="scale(0.4386675052214151)">
<path d="M1,4.7C1,4,1.2,3.4,1.4,2.8C1.6,2.5,1.7,2.1,2,1.9c0.3-0.2,0.6-0.4,0.9-0.5C4.3,0.9,5.8,1,7.3,1.3c0.6,0.2,1.3,0.5,1.6,1.1 C9.1,2.9,9,3.5,8.9,4C8.7,5,8.6,6,8.6,7c0,0.1,0,0.2,0,0.3C8.5,7.4,8.3,7.5,8.2,7.6C7.6,7.8,7.1,8.1,6.5,8.3 C5.9,8.6,5.3,8.9,4.7,8.9c-0.4,0-0.8,0-1.2-0.1C2.7,8.8,1,8.7,1,8.7L1,6L1,4.7z" fill="#f9f9f9" transform="translate(-5 -5)"></path>
</g></g></g><g>
<animateTransform attributeName="transform" type="translate" values="0 0;0 200" keyTimes="0;1" repeatCount="indefinite" dur="1.8666666666666665s" begin="-3.5854517942903534s"></animateTransform>
<g transform="translate(73.88023376117278 -103.1559964099801)"><g transform="scale(0.8306290857008872)">
<path d="M3.1,3.7C3.9,2.9,5,2.5,5.8,1.8c0.3-0.3,0.6-0.6,1-0.7c0.6-0.2,1.2,0.1,1.7,0C8,3.3,8.2,5.6,8.2,7.8c0,0,0,0.1,0,0.1 c0,0.1-0.1,0.1-0.2,0.1c-1.3,0.5-2.7,0.3-4,0.8C3.9,8.9,3.8,9,3.6,9C3.4,9,3.3,8.9,3.2,8.7C2.9,8.4,1.7,7.1,1.4,7.3 C1.6,7,1.7,6.6,1.8,6.2L3.1,3.7z" fill="#fff" transform="translate(-5 -5)"></path>
</g></g></g><g>
<animateTransform attributeName="transform" type="translate" values="0 0;0 200" keyTimes="0;1" repeatCount="indefinite" dur="1.8666666666666665s" begin="-3.5854517942903534s"></animateTransform>
<g transform="translate(73.88023376117278 96.8440035900199)"><g transform="scale(0.8306290857008872)">
<path d="M3.1,3.7C3.9,2.9,5,2.5,5.8,1.8c0.3-0.3,0.6-0.6,1-0.7c0.6-0.2,1.2,0.1,1.7,0C8,3.3,8.2,5.6,8.2,7.8c0,0,0,0.1,0,0.1 c0,0.1-0.1,0.1-0.2,0.1c-1.3,0.5-2.7,0.3-4,0.8C3.9,8.9,3.8,9,3.6,9C3.4,9,3.3,8.9,3.2,8.7C2.9,8.4,1.7,7.1,1.4,7.3 C1.6,7,1.7,6.6,1.8,6.2L3.1,3.7z" fill="#fff" transform="translate(-5 -5)"></path>
</g></g></g><g>
<animateTransform attributeName="transform" type="translate" values="0 0;0 200" keyTimes="0;1" repeatCount="indefinite" dur="1.8666666666666665s" begin="-3.5854517942903534s"></animateTransform>
<g transform="translate(73.88023376117278 296.8440035900199)"><g transform="scale(0.8306290857008872)">
<path d="M3.1,3.7C3.9,2.9,5,2.5,5.8,1.8c0.3-0.3,0.6-0.6,1-0.7c0.6-0.2,1.2,0.1,1.7,0C8,3.3,8.2,5.6,8.2,7.8c0,0,0,0.1,0,0.1 c0,0.1-0.1,0.1-0.2,0.1c-1.3,0.5-2.7,0.3-4,0.8C3.9,8.9,3.8,9,3.6,9C3.4,9,3.3,8.9,3.2,8.7C2.9,8.4,1.7,7.1,1.4,7.3 C1.6,7,1.7,6.6,1.8,6.2L3.1,3.7z" fill="#fff" transform="translate(-5 -5)"></path>
</g></g></g><g>
<animateTransform attributeName="transform" type="translate" values="0 0;0 200" keyTimes="0;1" repeatCount="indefinite" dur="1.8666666666666665s" begin="-4.170791517511051s"></animateTransform>
<g transform="translate(94.78476356357145 -66.05837291108642)"><g transform="scale(0.7556686967629426)">
<path d="M1,4.7C1,4,1.2,3.4,1.4,2.8C1.6,2.5,1.7,2.1,2,1.9c0.3-0.2,0.6-0.4,0.9-0.5C4.3,0.9,5.8,1,7.3,1.3c0.6,0.2,1.3,0.5,1.6,1.1 C9.1,2.9,9,3.5,8.9,4C8.7,5,8.6,6,8.6,7c0,0.1,0,0.2,0,0.3C8.5,7.4,8.3,7.5,8.2,7.6C7.6,7.8,7.1,8.1,6.5,8.3 C5.9,8.6,5.3,8.9,4.7,8.9c-0.4,0-0.8,0-1.2-0.1C2.7,8.8,1,8.7,1,8.7L1,6L1,4.7z" fill="#fff" transform="translate(-5 -5)"></path>
</g></g></g><g>
<animateTransform attributeName="transform" type="translate" values="0 0;0 200" keyTimes="0;1" repeatCount="indefinite" dur="1.8666666666666665s" begin="-4.170791517511051s"></animateTransform>
<g transform="translate(94.78476356357145 133.94162708891358)"><g transform="scale(0.7556686967629426)">
<path d="M1,4.7C1,4,1.2,3.4,1.4,2.8C1.6,2.5,1.7,2.1,2,1.9c0.3-0.2,0.6-0.4,0.9-0.5C4.3,0.9,5.8,1,7.3,1.3c0.6,0.2,1.3,0.5,1.6,1.1 C9.1,2.9,9,3.5,8.9,4C8.7,5,8.6,6,8.6,7c0,0.1,0,0.2,0,0.3C8.5,7.4,8.3,7.5,8.2,7.6C7.6,7.8,7.1,8.1,6.5,8.3 C5.9,8.6,5.3,8.9,4.7,8.9c-0.4,0-0.8,0-1.2-0.1C2.7,8.8,1,8.7,1,8.7L1,6L1,4.7z" fill="#fff" transform="translate(-5 -5)"></path>
</g></g></g><g>
<animateTransform attributeName="transform" type="translate" values="0 0;0 200" keyTimes="0;1" repeatCount="indefinite" dur="1.8666666666666665s" begin="-4.170791517511051s"></animateTransform>
<g transform="translate(94.78476356357145 333.9416270889136)"><g transform="scale(0.7556686967629426)">
<path d="M1,4.7C1,4,1.2,3.4,1.4,2.8C1.6,2.5,1.7,2.1,2,1.9c0.3-0.2,0.6-0.4,0.9-0.5C4.3,0.9,5.8,1,7.3,1.3c0.6,0.2,1.3,0.5,1.6,1.1 C9.1,2.9,9,3.5,8.9,4C8.7,5,8.6,6,8.6,7c0,0.1,0,0.2,0,0.3C8.5,7.4,8.3,7.5,8.2,7.6C7.6,7.8,7.1,8.1,6.5,8.3 C5.9,8.6,5.3,8.9,4.7,8.9c-0.4,0-0.8,0-1.2-0.1C2.7,8.8,1,8.7,1,8.7L1,6L1,4.7z" fill="#fff" transform="translate(-5 -5)"></path>
</g></g></g><g>
<animateTransform attributeName="transform" type="translate" values="0 0;0 200" keyTimes="0;1" repeatCount="indefinite" dur="1.8666666666666665s" begin="-0.5140228716639298s"></animateTransform>
<g transform="translate(16.955479892351867 -62.74420783163296)"><g transform="scale(0.3325356137232261)">
<path d="M3.1,3.7C3.9,2.9,5,2.5,5.8,1.8c0.3-0.3,0.6-0.6,1-0.7c0.6-0.2,1.2,0.1,1.7,0C8,3.3,8.2,5.6,8.2,7.8c0,0,0,0.1,0,0.1 c0,0.1-0.1,0.1-0.2,0.1c-1.3,0.5-2.7,0.3-4,0.8C3.9,8.9,3.8,9,3.6,9C3.4,9,3.3,8.9,3.2,8.7C2.9,8.4,1.7,7.1,1.4,7.3 C1.6,7,1.7,6.6,1.8,6.2L3.1,3.7z" fill="#f9f9f9" transform="translate(-5 -5)"></path>
</g></g></g><g>
<animateTransform attributeName="transform" type="translate" values="0 0;0 200" keyTimes="0;1" repeatCount="indefinite" dur="1.8666666666666665s" begin="-0.5140228716639298s"></animateTransform>
<g transform="translate(16.955479892351867 137.25579216836704)"><g transform="scale(0.3325356137232261)">
<path d="M3.1,3.7C3.9,2.9,5,2.5,5.8,1.8c0.3-0.3,0.6-0.6,1-0.7c0.6-0.2,1.2,0.1,1.7,0C8,3.3,8.2,5.6,8.2,7.8c0,0,0,0.1,0,0.1 c0,0.1-0.1,0.1-0.2,0.1c-1.3,0.5-2.7,0.3-4,0.8C3.9,8.9,3.8,9,3.6,9C3.4,9,3.3,8.9,3.2,8.7C2.9,8.4,1.7,7.1,1.4,7.3 C1.6,7,1.7,6.6,1.8,6.2L3.1,3.7z" fill="#f9f9f9" transform="translate(-5 -5)"></path>
</g></g></g><g>
<animateTransform attributeName="transform" type="translate" values="0 0;0 200" keyTimes="0;1" repeatCount="indefinite" dur="1.8666666666666665s" begin="-0.5140228716639298s"></animateTransform>
<g transform="translate(16.955479892351867 337.25579216836707)"><g transform="scale(0.3325356137232261)">
<path d="M3.1,3.7C3.9,2.9,5,2.5,5.8,1.8c0.3-0.3,0.6-0.6,1-0.7c0.6-0.2,1.2,0.1,1.7,0C8,3.3,8.2,5.6,8.2,7.8c0,0,0,0.1,0,0.1 c0,0.1-0.1,0.1-0.2,0.1c-1.3,0.5-2.7,0.3-4,0.8C3.9,8.9,3.8,9,3.6,9C3.4,9,3.3,8.9,3.2,8.7C2.9,8.4,1.7,7.1,1.4,7.3 C1.6,7,1.7,6.6,1.8,6.2L3.1,3.7z" fill="#f9f9f9" transform="translate(-5 -5)"></path>
</g></g></g><g>
<animateTransform attributeName="transform" type="translate" values="0 0;0 200" keyTimes="0;1" repeatCount="indefinite" dur="5.6s" begin="-0.31588496323608395s"></animateTransform>
<g transform="translate(41.52096610033338 -186.77307665785008)"><g transform="scale(0.24917138303924607)">
<path d="M5.3,1.8C4.2,1.2,2.6,1.7,1.8,2.6s-1,2.4-0.7,3.7c0.1,0.4,0.3,0.8,0.5,1.1C2,7.8,2.4,8,2.9,8.2c2.1,0.7,4.6-0.1,5.9-2 C8.9,6,9,5.8,9,5.6C9,5.4,8.9,5.2,8.8,5c-0.3-0.6-0.5-1.2-1-1.7C7.2,2.6,6.3,2.1,5.3,1.8z" fill="#f9f9f9" transform="translate(-5 -5)"></path>
</g></g></g><g>
<animateTransform attributeName="transform" type="translate" values="0 0;0 200" keyTimes="0;1" repeatCount="indefinite" dur="5.6s" begin="-0.31588496323608395s"></animateTransform>
<g transform="translate(41.52096610033338 13.226923342149929)"><g transform="scale(0.24917138303924607)">
<path d="M5.3,1.8C4.2,1.2,2.6,1.7,1.8,2.6s-1,2.4-0.7,3.7c0.1,0.4,0.3,0.8,0.5,1.1C2,7.8,2.4,8,2.9,8.2c2.1,0.7,4.6-0.1,5.9-2 C8.9,6,9,5.8,9,5.6C9,5.4,8.9,5.2,8.8,5c-0.3-0.6-0.5-1.2-1-1.7C7.2,2.6,6.3,2.1,5.3,1.8z" fill="#f9f9f9" transform="translate(-5 -5)"></path>
</g></g></g><g>
<animateTransform attributeName="transform" type="translate" values="0 0;0 200" keyTimes="0;1" repeatCount="indefinite" dur="5.6s" begin="-0.31588496323608395s"></animateTransform>
<g transform="translate(41.52096610033338 213.22692334214992)"><g transform="scale(0.24917138303924607)">
<path d="M5.3,1.8C4.2,1.2,2.6,1.7,1.8,2.6s-1,2.4-0.7,3.7c0.1,0.4,0.3,0.8,0.5,1.1C2,7.8,2.4,8,2.9,8.2c2.1,0.7,4.6-0.1,5.9-2 C8.9,6,9,5.8,9,5.6C9,5.4,8.9,5.2,8.8,5c-0.3-0.6-0.5-1.2-1-1.7C7.2,2.6,6.3,2.1,5.3,1.8z" fill="#f9f9f9" transform="translate(-5 -5)"></path>
</g></g></g><g>
<animateTransform attributeName="transform" type="translate" values="0 0;0 200" keyTimes="0;1" repeatCount="indefinite" dur="1.8666666666666665s" begin="-0.2719249192565961s"></animateTransform>
<g transform="translate(82.7429684627348 -198.15607154036073)"><g transform="scale(0.6222405781699948)">
<path d="M5.3,1.8C4.2,1.2,2.6,1.7,1.8,2.6s-1,2.4-0.7,3.7c0.1,0.4,0.3,0.8,0.5,1.1C2,7.8,2.4,8,2.9,8.2c2.1,0.7,4.6-0.1,5.9-2 C8.9,6,9,5.8,9,5.6C9,5.4,8.9,5.2,8.8,5c-0.3-0.6-0.5-1.2-1-1.7C7.2,2.6,6.3,2.1,5.3,1.8z" fill="#f9f9f9" transform="translate(-5 -5)"></path>
</g></g></g><g>
<animateTransform attributeName="transform" type="translate" values="0 0;0 200" keyTimes="0;1" repeatCount="indefinite" dur="1.8666666666666665s" begin="-0.2719249192565961s"></animateTransform>
<g transform="translate(82.7429684627348 1.8439284596392669)"><g transform="scale(0.6222405781699948)">
<path d="M5.3,1.8C4.2,1.2,2.6,1.7,1.8,2.6s-1,2.4-0.7,3.7c0.1,0.4,0.3,0.8,0.5,1.1C2,7.8,2.4,8,2.9,8.2c2.1,0.7,4.6-0.1,5.9-2 C8.9,6,9,5.8,9,5.6C9,5.4,8.9,5.2,8.8,5c-0.3-0.6-0.5-1.2-1-1.7C7.2,2.6,6.3,2.1,5.3,1.8z" fill="#f9f9f9" transform="translate(-5 -5)"></path>
</g></g></g><g>
<animateTransform attributeName="transform" type="translate" values="0 0;0 200" keyTimes="0;1" repeatCount="indefinite" dur="1.8666666666666665s" begin="-0.2719249192565961s"></animateTransform>
<g transform="translate(82.7429684627348 201.84392845963927)"><g transform="scale(0.6222405781699948)">
<path d="M5.3,1.8C4.2,1.2,2.6,1.7,1.8,2.6s-1,2.4-0.7,3.7c0.1,0.4,0.3,0.8,0.5,1.1C2,7.8,2.4,8,2.9,8.2c2.1,0.7,4.6-0.1,5.9-2 C8.9,6,9,5.8,9,5.6C9,5.4,8.9,5.2,8.8,5c-0.3-0.6-0.5-1.2-1-1.7C7.2,2.6,6.3,2.1,5.3,1.8z" fill="#f9f9f9" transform="translate(-5 -5)"></path>
</g></g></g><g>
<animateTransform attributeName="transform" type="translate" values="0 0;0 200" keyTimes="0;1" repeatCount="indefinite" dur="5.6s" begin="-1.8280019859891963s"></animateTransform>
<g transform="translate(162.53677143807317 -130.30372612415886)"><g transform="scale(0.4123591263157232)">
<path d="M1.8,8.9c0.6-1.3,1.2-2.6,1.8-4c0.4-0.8,0.8-1.7,1.3-2.4S6.2,1.2,7.1,1c0.4,0.8,1,1.5,1.1,2.4C8.3,4.1,8,4.9,7.6,5.6 S6.6,6.8,6,7.3C5.6,7.8,5.1,8.2,4.5,8.4C3.7,8.8,2.7,8.6,1.9,9L1.8,8.9z" fill="#f9f9f9" transform="translate(-5 -5)"></path>
</g></g></g><g>
<animateTransform attributeName="transform" type="translate" values="0 0;0 200" keyTimes="0;1" repeatCount="indefinite" dur="5.6s" begin="-1.8280019859891963s"></animateTransform>
<g transform="translate(162.53677143807317 69.69627387584113)"><g transform="scale(0.4123591263157232)">
<path d="M1.8,8.9c0.6-1.3,1.2-2.6,1.8-4c0.4-0.8,0.8-1.7,1.3-2.4S6.2,1.2,7.1,1c0.4,0.8,1,1.5,1.1,2.4C8.3,4.1,8,4.9,7.6,5.6 S6.6,6.8,6,7.3C5.6,7.8,5.1,8.2,4.5,8.4C3.7,8.8,2.7,8.6,1.9,9L1.8,8.9z" fill="#f9f9f9" transform="translate(-5 -5)"></path>
</g></g></g><g>
<animateTransform attributeName="transform" type="translate" values="0 0;0 200" keyTimes="0;1" repeatCount="indefinite" dur="5.6s" begin="-1.8280019859891963s"></animateTransform>
<g transform="translate(162.53677143807317 269.69627387584114)"><g transform="scale(0.4123591263157232)">
<path d="M1.8,8.9c0.6-1.3,1.2-2.6,1.8-4c0.4-0.8,0.8-1.7,1.3-2.4S6.2,1.2,7.1,1c0.4,0.8,1,1.5,1.1,2.4C8.3,4.1,8,4.9,7.6,5.6 S6.6,6.8,6,7.3C5.6,7.8,5.1,8.2,4.5,8.4C3.7,8.8,2.7,8.6,1.9,9L1.8,8.9z" fill="#f9f9f9" transform="translate(-5 -5)"></path>
</g></g></g><g>
<animateTransform attributeName="transform" type="translate" values="0 0;0 200" keyTimes="0;1" repeatCount="indefinite" dur="1.8666666666666665s" begin="-1.8841525907983168s"></animateTransform>
<g transform="translate(183.48577967494123 -87.36569132756873)"><g transform="scale(0.7385762571666253)">
<path d="M5.3,1.8C4.2,1.2,2.6,1.7,1.8,2.6s-1,2.4-0.7,3.7c0.1,0.4,0.3,0.8,0.5,1.1C2,7.8,2.4,8,2.9,8.2c2.1,0.7,4.6-0.1,5.9-2 C8.9,6,9,5.8,9,5.6C9,5.4,8.9,5.2,8.8,5c-0.3-0.6-0.5-1.2-1-1.7C7.2,2.6,6.3,2.1,5.3,1.8z" fill="#fff" transform="translate(-5 -5)"></path>
</g></g></g><g>
<animateTransform attributeName="transform" type="translate" values="0 0;0 200" keyTimes="0;1" repeatCount="indefinite" dur="1.8666666666666665s" begin="-1.8841525907983168s"></animateTransform>
<g transform="translate(183.48577967494123 112.63430867243127)"><g transform="scale(0.7385762571666253)">
<path d="M5.3,1.8C4.2,1.2,2.6,1.7,1.8,2.6s-1,2.4-0.7,3.7c0.1,0.4,0.3,0.8,0.5,1.1C2,7.8,2.4,8,2.9,8.2c2.1,0.7,4.6-0.1,5.9-2 C8.9,6,9,5.8,9,5.6C9,5.4,8.9,5.2,8.8,5c-0.3-0.6-0.5-1.2-1-1.7C7.2,2.6,6.3,2.1,5.3,1.8z" fill="#fff" transform="translate(-5 -5)"></path>
</g></g></g><g>
<animateTransform attributeName="transform" type="translate" values="0 0;0 200" keyTimes="0;1" repeatCount="indefinite" dur="1.8666666666666665s" begin="-1.8841525907983168s"></animateTransform>
<g transform="translate(183.48577967494123 312.6343086724313)"><g transform="scale(0.7385762571666253)">
<path d="M5.3,1.8C4.2,1.2,2.6,1.7,1.8,2.6s-1,2.4-0.7,3.7c0.1,0.4,0.3,0.8,0.5,1.1C2,7.8,2.4,8,2.9,8.2c2.1,0.7,4.6-0.1,5.9-2 C8.9,6,9,5.8,9,5.6C9,5.4,8.9,5.2,8.8,5c-0.3-0.6-0.5-1.2-1-1.7C7.2,2.6,6.3,2.1,5.3,1.8z" fill="#fff" transform="translate(-5 -5)"></path>
</g></g></g><g>
<animateTransform attributeName="transform" type="translate" values="0 0;0 200" keyTimes="0;1" repeatCount="indefinite" dur="1.8666666666666665s" begin="-2.4159698554715514s"></animateTransform>
<g transform="translate(168.14128654870225 -42.31673484542705)"><g transform="scale(0.5128554215256388)">
<path d="M5.3,1.8C4.2,1.2,2.6,1.7,1.8,2.6s-1,2.4-0.7,3.7c0.1,0.4,0.3,0.8,0.5,1.1C2,7.8,2.4,8,2.9,8.2c2.1,0.7,4.6-0.1,5.9-2 C8.9,6,9,5.8,9,5.6C9,5.4,8.9,5.2,8.8,5c-0.3-0.6-0.5-1.2-1-1.7C7.2,2.6,6.3,2.1,5.3,1.8z" fill="#fff" transform="translate(-5 -5)"></path>
</g></g></g><g>
<animateTransform attributeName="transform" type="translate" values="0 0;0 200" keyTimes="0;1" repeatCount="indefinite" dur="1.8666666666666665s" begin="-2.4159698554715514s"></animateTransform>
<g transform="translate(168.14128654870225 157.68326515457295)"><g transform="scale(0.5128554215256388)">
<path d="M5.3,1.8C4.2,1.2,2.6,1.7,1.8,2.6s-1,2.4-0.7,3.7c0.1,0.4,0.3,0.8,0.5,1.1C2,7.8,2.4,8,2.9,8.2c2.1,0.7,4.6-0.1,5.9-2 C8.9,6,9,5.8,9,5.6C9,5.4,8.9,5.2,8.8,5c-0.3-0.6-0.5-1.2-1-1.7C7.2,2.6,6.3,2.1,5.3,1.8z" fill="#fff" transform="translate(-5 -5)"></path>
</g></g></g><g>
<animateTransform attributeName="transform" type="translate" values="0 0;0 200" keyTimes="0;1" repeatCount="indefinite" dur="1.8666666666666665s" begin="-2.4159698554715514s"></animateTransform>
<g transform="translate(168.14128654870225 357.68326515457295)"><g transform="scale(0.5128554215256388)">
<path d="M5.3,1.8C4.2,1.2,2.6,1.7,1.8,2.6s-1,2.4-0.7,3.7c0.1,0.4,0.3,0.8,0.5,1.1C2,7.8,2.4,8,2.9,8.2c2.1,0.7,4.6-0.1,5.9-2 C8.9,6,9,5.8,9,5.6C9,5.4,8.9,5.2,8.8,5c-0.3-0.6-0.5-1.2-1-1.7C7.2,2.6,6.3,2.1,5.3,1.8z" fill="#fff" transform="translate(-5 -5)"></path>
</g></g></g><g>
<animateTransform attributeName="transform" type="translate" values="0 0;0 200" keyTimes="0;1" repeatCount="indefinite" dur="5.6s" begin="-4.5738608325588626s"></animateTransform>
<g transform="translate(187.39697722296424 -165.22804110935326)"><g transform="scale(0.42151372763402234)">
<path d="M1,4.7C1,4,1.2,3.4,1.4,2.8C1.6,2.5,1.7,2.1,2,1.9c0.3-0.2,0.6-0.4,0.9-0.5C4.3,0.9,5.8,1,7.3,1.3c0.6,0.2,1.3,0.5,1.6,1.1 C9.1,2.9,9,3.5,8.9,4C8.7,5,8.6,6,8.6,7c0,0.1,0,0.2,0,0.3C8.5,7.4,8.3,7.5,8.2,7.6C7.6,7.8,7.1,8.1,6.5,8.3 C5.9,8.6,5.3,8.9,4.7,8.9c-0.4,0-0.8,0-1.2-0.1C2.7,8.8,1,8.7,1,8.7L1,6L1,4.7z" fill="#eee" transform="translate(-5 -5)"></path>
</g></g></g><g>
<animateTransform attributeName="transform" type="translate" values="0 0;0 200" keyTimes="0;1" repeatCount="indefinite" dur="5.6s" begin="-4.5738608325588626s"></animateTransform>
<g transform="translate(187.39697722296424 34.77195889064674)"><g transform="scale(0.42151372763402234)">
<path d="M1,4.7C1,4,1.2,3.4,1.4,2.8C1.6,2.5,1.7,2.1,2,1.9c0.3-0.2,0.6-0.4,0.9-0.5C4.3,0.9,5.8,1,7.3,1.3c0.6,0.2,1.3,0.5,1.6,1.1 C9.1,2.9,9,3.5,8.9,4C8.7,5,8.6,6,8.6,7c0,0.1,0,0.2,0,0.3C8.5,7.4,8.3,7.5,8.2,7.6C7.6,7.8,7.1,8.1,6.5,8.3 C5.9,8.6,5.3,8.9,4.7,8.9c-0.4,0-0.8,0-1.2-0.1C2.7,8.8,1,8.7,1,8.7L1,6L1,4.7z" fill="#eee" transform="translate(-5 -5)"></path>
</g></g></g><g>
<animateTransform attributeName="transform" type="translate" values="0 0;0 200" keyTimes="0;1" repeatCount="indefinite" dur="5.6s" begin="-4.5738608325588626s"></animateTransform>
<g transform="translate(187.39697722296424 234.77195889064674)"><g transform="scale(0.42151372763402234)">
<path d="M1,4.7C1,4,1.2,3.4,1.4,2.8C1.6,2.5,1.7,2.1,2,1.9c0.3-0.2,0.6-0.4,0.9-0.5C4.3,0.9,5.8,1,7.3,1.3c0.6,0.2,1.3,0.5,1.6,1.1 C9.1,2.9,9,3.5,8.9,4C8.7,5,8.6,6,8.6,7c0,0.1,0,0.2,0,0.3C8.5,7.4,8.3,7.5,8.2,7.6C7.6,7.8,7.1,8.1,6.5,8.3 C5.9,8.6,5.3,8.9,4.7,8.9c-0.4,0-0.8,0-1.2-0.1C2.7,8.8,1,8.7,1,8.7L1,6L1,4.7z" fill="#eee" transform="translate(-5 -5)"></path>
</g></g></g><g>
<animateTransform attributeName="transform" type="translate" values="0 0;0 200" keyTimes="0;1" repeatCount="indefinite" dur="1.8666666666666665s" begin="-4.3136633689843755s"></animateTransform>
<g transform="translate(74.88872695062742 -26.69113796443719)"><g transform="scale(0.7018874627683771)">
<path d="M5.3,1.8C4.2,1.2,2.6,1.7,1.8,2.6s-1,2.4-0.7,3.7c0.1,0.4,0.3,0.8,0.5,1.1C2,7.8,2.4,8,2.9,8.2c2.1,0.7,4.6-0.1,5.9-2 C8.9,6,9,5.8,9,5.6C9,5.4,8.9,5.2,8.8,5c-0.3-0.6-0.5-1.2-1-1.7C7.2,2.6,6.3,2.1,5.3,1.8z" fill="#fff" transform="translate(-5 -5)"></path>
</g></g></g><g>
<animateTransform attributeName="transform" type="translate" values="0 0;0 200" keyTimes="0;1" repeatCount="indefinite" dur="1.8666666666666665s" begin="-4.3136633689843755s"></animateTransform>
<g transform="translate(74.88872695062742 173.3088620355628)"><g transform="scale(0.7018874627683771)">
<path d="M5.3,1.8C4.2,1.2,2.6,1.7,1.8,2.6s-1,2.4-0.7,3.7c0.1,0.4,0.3,0.8,0.5,1.1C2,7.8,2.4,8,2.9,8.2c2.1,0.7,4.6-0.1,5.9-2 C8.9,6,9,5.8,9,5.6C9,5.4,8.9,5.2,8.8,5c-0.3-0.6-0.5-1.2-1-1.7C7.2,2.6,6.3,2.1,5.3,1.8z" fill="#fff" transform="translate(-5 -5)"></path>
</g></g></g><g>
<animateTransform attributeName="transform" type="translate" values="0 0;0 200" keyTimes="0;1" repeatCount="indefinite" dur="1.8666666666666665s" begin="-4.3136633689843755s"></animateTransform>
<g transform="translate(74.88872695062742 373.3088620355628)"><g transform="scale(0.7018874627683771)">
<path d="M5.3,1.8C4.2,1.2,2.6,1.7,1.8,2.6s-1,2.4-0.7,3.7c0.1,0.4,0.3,0.8,0.5,1.1C2,7.8,2.4,8,2.9,8.2c2.1,0.7,4.6-0.1,5.9-2 C8.9,6,9,5.8,9,5.6C9,5.4,8.9,5.2,8.8,5c-0.3-0.6-0.5-1.2-1-1.7C7.2,2.6,6.3,2.1,5.3,1.8z" fill="#fff" transform="translate(-5 -5)"></path>
</g></g></g><g>
<animateTransform attributeName="transform" type="translate" values="0 0;0 200" keyTimes="0;1" repeatCount="indefinite" dur="1.4s" begin="-2.7631493619677663s"></animateTransform>
<g transform="translate(94.9885405039801 -171.07062218907495)"><g transform="scale(0.18526373975077923)">
<path d="M5.3,1.8C4.2,1.2,2.6,1.7,1.8,2.6s-1,2.4-0.7,3.7c0.1,0.4,0.3,0.8,0.5,1.1C2,7.8,2.4,8,2.9,8.2c2.1,0.7,4.6-0.1,5.9-2 C8.9,6,9,5.8,9,5.6C9,5.4,8.9,5.2,8.8,5c-0.3-0.6-0.5-1.2-1-1.7C7.2,2.6,6.3,2.1,5.3,1.8z" fill="#f9f9f9" transform="translate(-5 -5)"></path>
</g></g></g><g>
<animateTransform attributeName="transform" type="translate" values="0 0;0 200" keyTimes="0;1" repeatCount="indefinite" dur="1.4s" begin="-2.7631493619677663s"></animateTransform>
<g transform="translate(94.9885405039801 28.929377810925054)"><g transform="scale(0.18526373975077923)">
<path d="M5.3,1.8C4.2,1.2,2.6,1.7,1.8,2.6s-1,2.4-0.7,3.7c0.1,0.4,0.3,0.8,0.5,1.1C2,7.8,2.4,8,2.9,8.2c2.1,0.7,4.6-0.1,5.9-2 C8.9,6,9,5.8,9,5.6C9,5.4,8.9,5.2,8.8,5c-0.3-0.6-0.5-1.2-1-1.7C7.2,2.6,6.3,2.1,5.3,1.8z" fill="#f9f9f9" transform="translate(-5 -5)"></path>
</g></g></g><g>
<animateTransform attributeName="transform" type="translate" values="0 0;0 200" keyTimes="0;1" repeatCount="indefinite" dur="1.4s" begin="-2.7631493619677663s"></animateTransform>
<g transform="translate(94.9885405039801 228.92937781092505)"><g transform="scale(0.18526373975077923)">
<path d="M5.3,1.8C4.2,1.2,2.6,1.7,1.8,2.6s-1,2.4-0.7,3.7c0.1,0.4,0.3,0.8,0.5,1.1C2,7.8,2.4,8,2.9,8.2c2.1,0.7,4.6-0.1,5.9-2 C8.9,6,9,5.8,9,5.6C9,5.4,8.9,5.2,8.8,5c-0.3-0.6-0.5-1.2-1-1.7C7.2,2.6,6.3,2.1,5.3,1.8z" fill="#f9f9f9" transform="translate(-5 -5)"></path>
</g></g></g><g>
<animateTransform attributeName="transform" type="translate" values="0 0;0 200" keyTimes="0;1" repeatCount="indefinite" dur="1.8666666666666665s" begin="-3.080570360638745s"></animateTransform>
<g transform="translate(170.6723368381252 -10.621590354530639)"><g transform="scale(0.3586990385404526)">
<path d="M1,4.7C1,4,1.2,3.4,1.4,2.8C1.6,2.5,1.7,2.1,2,1.9c0.3-0.2,0.6-0.4,0.9-0.5C4.3,0.9,5.8,1,7.3,1.3c0.6,0.2,1.3,0.5,1.6,1.1 C9.1,2.9,9,3.5,8.9,4C8.7,5,8.6,6,8.6,7c0,0.1,0,0.2,0,0.3C8.5,7.4,8.3,7.5,8.2,7.6C7.6,7.8,7.1,8.1,6.5,8.3 C5.9,8.6,5.3,8.9,4.7,8.9c-0.4,0-0.8,0-1.2-0.1C2.7,8.8,1,8.7,1,8.7L1,6L1,4.7z" fill="#eee" transform="translate(-5 -5)"></path>
</g></g></g><g>
<animateTransform attributeName="transform" type="translate" values="0 0;0 200" keyTimes="0;1" repeatCount="indefinite" dur="1.8666666666666665s" begin="-3.080570360638745s"></animateTransform>
<g transform="translate(170.6723368381252 189.37840964546936)"><g transform="scale(0.3586990385404526)">
<path d="M1,4.7C1,4,1.2,3.4,1.4,2.8C1.6,2.5,1.7,2.1,2,1.9c0.3-0.2,0.6-0.4,0.9-0.5C4.3,0.9,5.8,1,7.3,1.3c0.6,0.2,1.3,0.5,1.6,1.1 C9.1,2.9,9,3.5,8.9,4C8.7,5,8.6,6,8.6,7c0,0.1,0,0.2,0,0.3C8.5,7.4,8.3,7.5,8.2,7.6C7.6,7.8,7.1,8.1,6.5,8.3 C5.9,8.6,5.3,8.9,4.7,8.9c-0.4,0-0.8,0-1.2-0.1C2.7,8.8,1,8.7,1,8.7L1,6L1,4.7z" fill="#eee" transform="translate(-5 -5)"></path>
</g></g></g><g>
<animateTransform attributeName="transform" type="translate" values="0 0;0 200" keyTimes="0;1" repeatCount="indefinite" dur="1.8666666666666665s" begin="-3.080570360638745s"></animateTransform>
<g transform="translate(170.6723368381252 389.37840964546933)"><g transform="scale(0.3586990385404526)">
<path d="M1,4.7C1,4,1.2,3.4,1.4,2.8C1.6,2.5,1.7,2.1,2,1.9c0.3-0.2,0.6-0.4,0.9-0.5C4.3,0.9,5.8,1,7.3,1.3c0.6,0.2,1.3,0.5,1.6,1.1 C9.1,2.9,9,3.5,8.9,4C8.7,5,8.6,6,8.6,7c0,0.1,0,0.2,0,0.3C8.5,7.4,8.3,7.5,8.2,7.6C7.6,7.8,7.1,8.1,6.5,8.3 C5.9,8.6,5.3,8.9,4.7,8.9c-0.4,0-0.8,0-1.2-0.1C2.7,8.8,1,8.7,1,8.7L1,6L1,4.7z" fill="#eee" transform="translate(-5 -5)"></path>
</g></g></g><g>
<animateTransform attributeName="transform" type="translate" values="0 0;0 200" keyTimes="0;1" repeatCount="indefinite" dur="1.8666666666666665s" begin="-5.167757831389915s"></animateTransform>
<g transform="translate(97.58547968776911 -0.6386417262017119)"><g transform="scale(0.5352744361153443)">
<path d="M5.3,1.8C4.2,1.2,2.6,1.7,1.8,2.6s-1,2.4-0.7,3.7c0.1,0.4,0.3,0.8,0.5,1.1C2,7.8,2.4,8,2.9,8.2c2.1,0.7,4.6-0.1,5.9-2 C8.9,6,9,5.8,9,5.6C9,5.4,8.9,5.2,8.8,5c-0.3-0.6-0.5-1.2-1-1.7C7.2,2.6,6.3,2.1,5.3,1.8z" fill="#fff" transform="translate(-5 -5)"></path>
</g></g></g><g>
<animateTransform attributeName="transform" type="translate" values="0 0;0 200" keyTimes="0;1" repeatCount="indefinite" dur="1.8666666666666665s" begin="-5.167757831389915s"></animateTransform>
<g transform="translate(97.58547968776911 199.3613582737983)"><g transform="scale(0.5352744361153443)">
<path d="M5.3,1.8C4.2,1.2,2.6,1.7,1.8,2.6s-1,2.4-0.7,3.7c0.1,0.4,0.3,0.8,0.5,1.1C2,7.8,2.4,8,2.9,8.2c2.1,0.7,4.6-0.1,5.9-2 C8.9,6,9,5.8,9,5.6C9,5.4,8.9,5.2,8.8,5c-0.3-0.6-0.5-1.2-1-1.7C7.2,2.6,6.3,2.1,5.3,1.8z" fill="#fff" transform="translate(-5 -5)"></path>
</g></g></g><g>
<animateTransform attributeName="transform" type="translate" values="0 0;0 200" keyTimes="0;1" repeatCount="indefinite" dur="1.8666666666666665s" begin="-5.167757831389915s"></animateTransform>
<g transform="translate(97.58547968776911 399.36135827379826)"><g transform="scale(0.5352744361153443)">
<path d="M5.3,1.8C4.2,1.2,2.6,1.7,1.8,2.6s-1,2.4-0.7,3.7c0.1,0.4,0.3,0.8,0.5,1.1C2,7.8,2.4,8,2.9,8.2c2.1,0.7,4.6-0.1,5.9-2 C8.9,6,9,5.8,9,5.6C9,5.4,8.9,5.2,8.8,5c-0.3-0.6-0.5-1.2-1-1.7C7.2,2.6,6.3,2.1,5.3,1.8z" fill="#fff" transform="translate(-5 -5)"></path>
</g></g></g><g>
<animateTransform attributeName="transform" type="translate" values="0 0;0 200" keyTimes="0;1" repeatCount="indefinite" dur="1.4s" begin="-5.565298365059906s"></animateTransform>
<g transform="translate(190.30765026570248 -156.8998231755142)"><g transform="scale(0.12888629554417638)">
<path d="M5.3,1.8C4.2,1.2,2.6,1.7,1.8,2.6s-1,2.4-0.7,3.7c0.1,0.4,0.3,0.8,0.5,1.1C2,7.8,2.4,8,2.9,8.2c2.1,0.7,4.6-0.1,5.9-2 C8.9,6,9,5.8,9,5.6C9,5.4,8.9,5.2,8.8,5c-0.3-0.6-0.5-1.2-1-1.7C7.2,2.6,6.3,2.1,5.3,1.8z" fill="#eee" transform="translate(-5 -5)"></path>
</g></g></g><g>
<animateTransform attributeName="transform" type="translate" values="0 0;0 200" keyTimes="0;1" repeatCount="indefinite" dur="1.4s" begin="-5.565298365059906s"></animateTransform>
<g transform="translate(190.30765026570248 43.10017682448581)"><g transform="scale(0.12888629554417638)">
<path d="M5.3,1.8C4.2,1.2,2.6,1.7,1.8,2.6s-1,2.4-0.7,3.7c0.1,0.4,0.3,0.8,0.5,1.1C2,7.8,2.4,8,2.9,8.2c2.1,0.7,4.6-0.1,5.9-2 C8.9,6,9,5.8,9,5.6C9,5.4,8.9,5.2,8.8,5c-0.3-0.6-0.5-1.2-1-1.7C7.2,2.6,6.3,2.1,5.3,1.8z" fill="#eee" transform="translate(-5 -5)"></path>
</g></g></g><g>
<animateTransform attributeName="transform" type="translate" values="0 0;0 200" keyTimes="0;1" repeatCount="indefinite" dur="1.4s" begin="-5.565298365059906s"></animateTransform>
<g transform="translate(190.30765026570248 243.1001768244858)"><g transform="scale(0.12888629554417638)">
<path d="M5.3,1.8C4.2,1.2,2.6,1.7,1.8,2.6s-1,2.4-0.7,3.7c0.1,0.4,0.3,0.8,0.5,1.1C2,7.8,2.4,8,2.9,8.2c2.1,0.7,4.6-0.1,5.9-2 C8.9,6,9,5.8,9,5.6C9,5.4,8.9,5.2,8.8,5c-0.3-0.6-0.5-1.2-1-1.7C7.2,2.6,6.3,2.1,5.3,1.8z" fill="#eee" transform="translate(-5 -5)"></path>
</g></g></g><g>
<animateTransform attributeName="transform" type="translate" values="0 0;0 200" keyTimes="0;1" repeatCount="indefinite" dur="1.8666666666666665s" begin="-1.5631481418838102s"></animateTransform>
<g transform="translate(139.51364126304648 -169.4574461481637)"><g transform="scale(0.7439142236664635)">
<path d="M5.3,1.8C4.2,1.2,2.6,1.7,1.8,2.6s-1,2.4-0.7,3.7c0.1,0.4,0.3,0.8,0.5,1.1C2,7.8,2.4,8,2.9,8.2c2.1,0.7,4.6-0.1,5.9-2 C8.9,6,9,5.8,9,5.6C9,5.4,8.9,5.2,8.8,5c-0.3-0.6-0.5-1.2-1-1.7C7.2,2.6,6.3,2.1,5.3,1.8z" fill="#eee" transform="translate(-5 -5)"></path>
</g></g></g><g>
<animateTransform attributeName="transform" type="translate" values="0 0;0 200" keyTimes="0;1" repeatCount="indefinite" dur="1.8666666666666665s" begin="-1.5631481418838102s"></animateTransform>
<g transform="translate(139.51364126304648 30.542553851836296)"><g transform="scale(0.7439142236664635)">
<path d="M5.3,1.8C4.2,1.2,2.6,1.7,1.8,2.6s-1,2.4-0.7,3.7c0.1,0.4,0.3,0.8,0.5,1.1C2,7.8,2.4,8,2.9,8.2c2.1,0.7,4.6-0.1,5.9-2 C8.9,6,9,5.8,9,5.6C9,5.4,8.9,5.2,8.8,5c-0.3-0.6-0.5-1.2-1-1.7C7.2,2.6,6.3,2.1,5.3,1.8z" fill="#eee" transform="translate(-5 -5)"></path>
</g></g></g><g>
<animateTransform attributeName="transform" type="translate" values="0 0;0 200" keyTimes="0;1" repeatCount="indefinite" dur="1.8666666666666665s" begin="-1.5631481418838102s"></animateTransform>
<g transform="translate(139.51364126304648 230.5425538518363)"><g transform="scale(0.7439142236664635)">
<path d="M5.3,1.8C4.2,1.2,2.6,1.7,1.8,2.6s-1,2.4-0.7,3.7c0.1,0.4,0.3,0.8,0.5,1.1C2,7.8,2.4,8,2.9,8.2c2.1,0.7,4.6-0.1,5.9-2 C8.9,6,9,5.8,9,5.6C9,5.4,8.9,5.2,8.8,5c-0.3-0.6-0.5-1.2-1-1.7C7.2,2.6,6.3,2.1,5.3,1.8z" fill="#eee" transform="translate(-5 -5)"></path>
</g></g></g><g>
<animateTransform attributeName="transform" type="translate" values="0 0;0 200" keyTimes="0;1" repeatCount="indefinite" dur="2.8s" begin="-1.6661320794505095s"></animateTransform>
<g transform="translate(47.165619482507424 -107.74736158478261)"><g transform="scale(0.8649453074396541)">
<path d="M1.8,8.9c0.6-1.3,1.2-2.6,1.8-4c0.4-0.8,0.8-1.7,1.3-2.4S6.2,1.2,7.1,1c0.4,0.8,1,1.5,1.1,2.4C8.3,4.1,8,4.9,7.6,5.6 S6.6,6.8,6,7.3C5.6,7.8,5.1,8.2,4.5,8.4C3.7,8.8,2.7,8.6,1.9,9L1.8,8.9z" fill="#eee" transform="translate(-5 -5)"></path>
</g></g></g><g>
<animateTransform attributeName="transform" type="translate" values="0 0;0 200" keyTimes="0;1" repeatCount="indefinite" dur="2.8s" begin="-1.6661320794505095s"></animateTransform>
<g transform="translate(47.165619482507424 92.25263841521739)"><g transform="scale(0.8649453074396541)">
<path d="M1.8,8.9c0.6-1.3,1.2-2.6,1.8-4c0.4-0.8,0.8-1.7,1.3-2.4S6.2,1.2,7.1,1c0.4,0.8,1,1.5,1.1,2.4C8.3,4.1,8,4.9,7.6,5.6 S6.6,6.8,6,7.3C5.6,7.8,5.1,8.2,4.5,8.4C3.7,8.8,2.7,8.6,1.9,9L1.8,8.9z" fill="#eee" transform="translate(-5 -5)"></path>
</g></g></g><g>
<animateTransform attributeName="transform" type="translate" values="0 0;0 200" keyTimes="0;1" repeatCount="indefinite" dur="2.8s" begin="-1.6661320794505095s"></animateTransform>
<g transform="translate(47.165619482507424 292.2526384152174)"><g transform="scale(0.8649453074396541)">
<path d="M1.8,8.9c0.6-1.3,1.2-2.6,1.8-4c0.4-0.8,0.8-1.7,1.3-2.4S6.2,1.2,7.1,1c0.4,0.8,1,1.5,1.1,2.4C8.3,4.1,8,4.9,7.6,5.6 S6.6,6.8,6,7.3C5.6,7.8,5.1,8.2,4.5,8.4C3.7,8.8,2.7,8.6,1.9,9L1.8,8.9z" fill="#eee" transform="translate(-5 -5)"></path>
</g></g></g><g>
<animateTransform attributeName="transform" type="translate" values="0 0;0 200" keyTimes="0;1" repeatCount="indefinite" dur="2.8s" begin="-0.03864415876175115s"></animateTransform>
<g transform="translate(6.592463106411918 -7.0684775153223995)"><g transform="scale(0.5316615156664347)">
<path d="M5.3,1.8C4.2,1.2,2.6,1.7,1.8,2.6s-1,2.4-0.7,3.7c0.1,0.4,0.3,0.8,0.5,1.1C2,7.8,2.4,8,2.9,8.2c2.1,0.7,4.6-0.1,5.9-2 C8.9,6,9,5.8,9,5.6C9,5.4,8.9,5.2,8.8,5c-0.3-0.6-0.5-1.2-1-1.7C7.2,2.6,6.3,2.1,5.3,1.8z" fill="#eee" transform="translate(-5 -5)"></path>
</g></g></g><g>
<animateTransform attributeName="transform" type="translate" values="0 0;0 200" keyTimes="0;1" repeatCount="indefinite" dur="2.8s" begin="-0.03864415876175115s"></animateTransform>
<g transform="translate(6.592463106411918 192.9315224846776)"><g transform="scale(0.5316615156664347)">
<path d="M5.3,1.8C4.2,1.2,2.6,1.7,1.8,2.6s-1,2.4-0.7,3.7c0.1,0.4,0.3,0.8,0.5,1.1C2,7.8,2.4,8,2.9,8.2c2.1,0.7,4.6-0.1,5.9-2 C8.9,6,9,5.8,9,5.6C9,5.4,8.9,5.2,8.8,5c-0.3-0.6-0.5-1.2-1-1.7C7.2,2.6,6.3,2.1,5.3,1.8z" fill="#eee" transform="translate(-5 -5)"></path>
</g></g></g><g>
<animateTransform attributeName="transform" type="translate" values="0 0;0 200" keyTimes="0;1" repeatCount="indefinite" dur="2.8s" begin="-0.03864415876175115s"></animateTransform>
<g transform="translate(6.592463106411918 392.9315224846776)"><g transform="scale(0.5316615156664347)">
<path d="M5.3,1.8C4.2,1.2,2.6,1.7,1.8,2.6s-1,2.4-0.7,3.7c0.1,0.4,0.3,0.8,0.5,1.1C2,7.8,2.4,8,2.9,8.2c2.1,0.7,4.6-0.1,5.9-2 C8.9,6,9,5.8,9,5.6C9,5.4,8.9,5.2,8.8,5c-0.3-0.6-0.5-1.2-1-1.7C7.2,2.6,6.3,2.1,5.3,1.8z" fill="#eee" transform="translate(-5 -5)"></path>
</g></g></g><g>
<animateTransform attributeName="transform" type="translate" values="0 0;0 200" keyTimes="0;1" repeatCount="indefinite" dur="1.8666666666666665s" begin="-2.6902488204333688s"></animateTransform>
<g transform="translate(121.7522300859217 -147.62040035574785)"><g transform="scale(0.3983237444734552)">
<path d="M5.3,1.8C4.2,1.2,2.6,1.7,1.8,2.6s-1,2.4-0.7,3.7c0.1,0.4,0.3,0.8,0.5,1.1C2,7.8,2.4,8,2.9,8.2c2.1,0.7,4.6-0.1,5.9-2 C8.9,6,9,5.8,9,5.6C9,5.4,8.9,5.2,8.8,5c-0.3-0.6-0.5-1.2-1-1.7C7.2,2.6,6.3,2.1,5.3,1.8z" fill="#f9f9f9" transform="translate(-5 -5)"></path>
</g></g></g><g>
<animateTransform attributeName="transform" type="translate" values="0 0;0 200" keyTimes="0;1" repeatCount="indefinite" dur="1.8666666666666665s" begin="-2.6902488204333688s"></animateTransform>
<g transform="translate(121.7522300859217 52.37959964425215)"><g transform="scale(0.3983237444734552)">
<path d="M5.3,1.8C4.2,1.2,2.6,1.7,1.8,2.6s-1,2.4-0.7,3.7c0.1,0.4,0.3,0.8,0.5,1.1C2,7.8,2.4,8,2.9,8.2c2.1,0.7,4.6-0.1,5.9-2 C8.9,6,9,5.8,9,5.6C9,5.4,8.9,5.2,8.8,5c-0.3-0.6-0.5-1.2-1-1.7C7.2,2.6,6.3,2.1,5.3,1.8z" fill="#f9f9f9" transform="translate(-5 -5)"></path>
</g></g></g><g>
<animateTransform attributeName="transform" type="translate" values="0 0;0 200" keyTimes="0;1" repeatCount="indefinite" dur="1.8666666666666665s" begin="-2.6902488204333688s"></animateTransform>
<g transform="translate(121.7522300859217 252.37959964425215)"><g transform="scale(0.3983237444734552)">
<path d="M5.3,1.8C4.2,1.2,2.6,1.7,1.8,2.6s-1,2.4-0.7,3.7c0.1,0.4,0.3,0.8,0.5,1.1C2,7.8,2.4,8,2.9,8.2c2.1,0.7,4.6-0.1,5.9-2 C8.9,6,9,5.8,9,5.6C9,5.4,8.9,5.2,8.8,5c-0.3-0.6-0.5-1.2-1-1.7C7.2,2.6,6.3,2.1,5.3,1.8z" fill="#f9f9f9" transform="translate(-5 -5)"></path>
</g></g></g><g>
<animateTransform attributeName="transform" type="translate" values="0 0;0 200" keyTimes="0;1" repeatCount="indefinite" dur="5.6s" begin="-0.5694868428843445s"></animateTransform>
<g transform="translate(99.85538220262431 -124.31344085692727)"><g transform="scale(0.32577674255472117)">
<path d="M1,4.7C1,4,1.2,3.4,1.4,2.8C1.6,2.5,1.7,2.1,2,1.9c0.3-0.2,0.6-0.4,0.9-0.5C4.3,0.9,5.8,1,7.3,1.3c0.6,0.2,1.3,0.5,1.6,1.1 C9.1,2.9,9,3.5,8.9,4C8.7,5,8.6,6,8.6,7c0,0.1,0,0.2,0,0.3C8.5,7.4,8.3,7.5,8.2,7.6C7.6,7.8,7.1,8.1,6.5,8.3 C5.9,8.6,5.3,8.9,4.7,8.9c-0.4,0-0.8,0-1.2-0.1C2.7,8.8,1,8.7,1,8.7L1,6L1,4.7z" fill="#fff" transform="translate(-5 -5)"></path>
</g></g></g><g>
<animateTransform attributeName="transform" type="translate" values="0 0;0 200" keyTimes="0;1" repeatCount="indefinite" dur="5.6s" begin="-0.5694868428843445s"></animateTransform>
<g transform="translate(99.85538220262431 75.68655914307273)"><g transform="scale(0.32577674255472117)">
<path d="M1,4.7C1,4,1.2,3.4,1.4,2.8C1.6,2.5,1.7,2.1,2,1.9c0.3-0.2,0.6-0.4,0.9-0.5C4.3,0.9,5.8,1,7.3,1.3c0.6,0.2,1.3,0.5,1.6,1.1 C9.1,2.9,9,3.5,8.9,4C8.7,5,8.6,6,8.6,7c0,0.1,0,0.2,0,0.3C8.5,7.4,8.3,7.5,8.2,7.6C7.6,7.8,7.1,8.1,6.5,8.3 C5.9,8.6,5.3,8.9,4.7,8.9c-0.4,0-0.8,0-1.2-0.1C2.7,8.8,1,8.7,1,8.7L1,6L1,4.7z" fill="#fff" transform="translate(-5 -5)"></path>
</g></g></g><g>
<animateTransform attributeName="transform" type="translate" values="0 0;0 200" keyTimes="0;1" repeatCount="indefinite" dur="5.6s" begin="-0.5694868428843445s"></animateTransform>
<g transform="translate(99.85538220262431 275.6865591430727)"><g transform="scale(0.32577674255472117)">
<path d="M1,4.7C1,4,1.2,3.4,1.4,2.8C1.6,2.5,1.7,2.1,2,1.9c0.3-0.2,0.6-0.4,0.9-0.5C4.3,0.9,5.8,1,7.3,1.3c0.6,0.2,1.3,0.5,1.6,1.1 C9.1,2.9,9,3.5,8.9,4C8.7,5,8.6,6,8.6,7c0,0.1,0,0.2,0,0.3C8.5,7.4,8.3,7.5,8.2,7.6C7.6,7.8,7.1,8.1,6.5,8.3 C5.9,8.6,5.3,8.9,4.7,8.9c-0.4,0-0.8,0-1.2-0.1C2.7,8.8,1,8.7,1,8.7L1,6L1,4.7z" fill="#fff" transform="translate(-5 -5)"></path>
</g></g></g><g>
<animateTransform attributeName="transform" type="translate" values="0 0;0 200" keyTimes="0;1" repeatCount="indefinite" dur="1.4s" begin="-5.341596159869053s"></animateTransform>
<g transform="translate(187.03042904388994 -111.8045384794695)"><g transform="scale(0.08226827109845021)">
<path d="M1,4.7C1,4,1.2,3.4,1.4,2.8C1.6,2.5,1.7,2.1,2,1.9c0.3-0.2,0.6-0.4,0.9-0.5C4.3,0.9,5.8,1,7.3,1.3c0.6,0.2,1.3,0.5,1.6,1.1 C9.1,2.9,9,3.5,8.9,4C8.7,5,8.6,6,8.6,7c0,0.1,0,0.2,0,0.3C8.5,7.4,8.3,7.5,8.2,7.6C7.6,7.8,7.1,8.1,6.5,8.3 C5.9,8.6,5.3,8.9,4.7,8.9c-0.4,0-0.8,0-1.2-0.1C2.7,8.8,1,8.7,1,8.7L1,6L1,4.7z" fill="#f9f9f9" transform="translate(-5 -5)"></path>
</g></g></g><g>
<animateTransform attributeName="transform" type="translate" values="0 0;0 200" keyTimes="0;1" repeatCount="indefinite" dur="1.4s" begin="-5.341596159869053s"></animateTransform>
<g transform="translate(187.03042904388994 88.1954615205305)"><g transform="scale(0.08226827109845021)">
<path d="M1,4.7C1,4,1.2,3.4,1.4,2.8C1.6,2.5,1.7,2.1,2,1.9c0.3-0.2,0.6-0.4,0.9-0.5C4.3,0.9,5.8,1,7.3,1.3c0.6,0.2,1.3,0.5,1.6,1.1 C9.1,2.9,9,3.5,8.9,4C8.7,5,8.6,6,8.6,7c0,0.1,0,0.2,0,0.3C8.5,7.4,8.3,7.5,8.2,7.6C7.6,7.8,7.1,8.1,6.5,8.3 C5.9,8.6,5.3,8.9,4.7,8.9c-0.4,0-0.8,0-1.2-0.1C2.7,8.8,1,8.7,1,8.7L1,6L1,4.7z" fill="#f9f9f9" transform="translate(-5 -5)"></path>
</g></g></g><g>
<animateTransform attributeName="transform" type="translate" values="0 0;0 200" keyTimes="0;1" repeatCount="indefinite" dur="1.4s" begin="-5.341596159869053s"></animateTransform>
<g transform="translate(187.03042904388994 288.1954615205305)"><g transform="scale(0.08226827109845021)">
<path d="M1,4.7C1,4,1.2,3.4,1.4,2.8C1.6,2.5,1.7,2.1,2,1.9c0.3-0.2,0.6-0.4,0.9-0.5C4.3,0.9,5.8,1,7.3,1.3c0.6,0.2,1.3,0.5,1.6,1.1 C9.1,2.9,9,3.5,8.9,4C8.7,5,8.6,6,8.6,7c0,0.1,0,0.2,0,0.3C8.5,7.4,8.3,7.5,8.2,7.6C7.6,7.8,7.1,8.1,6.5,8.3 C5.9,8.6,5.3,8.9,4.7,8.9c-0.4,0-0.8,0-1.2-0.1C2.7,8.8,1,8.7,1,8.7L1,6L1,4.7z" fill="#f9f9f9" transform="translate(-5 -5)"></path>
</g></g></g><g>
<animateTransform attributeName="transform" type="translate" values="0 0;0 200" keyTimes="0;1" repeatCount="indefinite" dur="1.8666666666666665s" begin="-4.161919456362869s"></animateTransform>
<g transform="translate(190.45173985001043 -171.3672059513967)"><g transform="scale(0.5089646731401888)">
<path d="M5.3,1.8C4.2,1.2,2.6,1.7,1.8,2.6s-1,2.4-0.7,3.7c0.1,0.4,0.3,0.8,0.5,1.1C2,7.8,2.4,8,2.9,8.2c2.1,0.7,4.6-0.1,5.9-2 C8.9,6,9,5.8,9,5.6C9,5.4,8.9,5.2,8.8,5c-0.3-0.6-0.5-1.2-1-1.7C7.2,2.6,6.3,2.1,5.3,1.8z" fill="#fff" transform="translate(-5 -5)"></path>
</g></g></g><g>
<animateTransform attributeName="transform" type="translate" values="0 0;0 200" keyTimes="0;1" repeatCount="indefinite" dur="1.8666666666666665s" begin="-4.161919456362869s"></animateTransform>
<g transform="translate(190.45173985001043 28.632794048603294)"><g transform="scale(0.5089646731401888)">
<path d="M5.3,1.8C4.2,1.2,2.6,1.7,1.8,2.6s-1,2.4-0.7,3.7c0.1,0.4,0.3,0.8,0.5,1.1C2,7.8,2.4,8,2.9,8.2c2.1,0.7,4.6-0.1,5.9-2 C8.9,6,9,5.8,9,5.6C9,5.4,8.9,5.2,8.8,5c-0.3-0.6-0.5-1.2-1-1.7C7.2,2.6,6.3,2.1,5.3,1.8z" fill="#fff" transform="translate(-5 -5)"></path>
</g></g></g><g>
<animateTransform attributeName="transform" type="translate" values="0 0;0 200" keyTimes="0;1" repeatCount="indefinite" dur="1.8666666666666665s" begin="-4.161919456362869s"></animateTransform>
<g transform="translate(190.45173985001043 228.6327940486033)"><g transform="scale(0.5089646731401888)">
<path d="M5.3,1.8C4.2,1.2,2.6,1.7,1.8,2.6s-1,2.4-0.7,3.7c0.1,0.4,0.3,0.8,0.5,1.1C2,7.8,2.4,8,2.9,8.2c2.1,0.7,4.6-0.1,5.9-2 C8.9,6,9,5.8,9,5.6C9,5.4,8.9,5.2,8.8,5c-0.3-0.6-0.5-1.2-1-1.7C7.2,2.6,6.3,2.1,5.3,1.8z" fill="#fff" transform="translate(-5 -5)"></path>
</g></g></g><g>
<animateTransform attributeName="transform" type="translate" values="0 0;0 200" keyTimes="0;1" repeatCount="indefinite" dur="1.8666666666666665s" begin="-0.5355213439288711s"></animateTransform>
<g transform="translate(40.97674484064694 -20.717874440383923)"><g transform="scale(0.14242243352145556)">
<path d="M1.8,8.9c0.6-1.3,1.2-2.6,1.8-4c0.4-0.8,0.8-1.7,1.3-2.4S6.2,1.2,7.1,1c0.4,0.8,1,1.5,1.1,2.4C8.3,4.1,8,4.9,7.6,5.6 S6.6,6.8,6,7.3C5.6,7.8,5.1,8.2,4.5,8.4C3.7,8.8,2.7,8.6,1.9,9L1.8,8.9z" fill="#f9f9f9" transform="translate(-5 -5)"></path>
</g></g></g><g>
<animateTransform attributeName="transform" type="translate" values="0 0;0 200" keyTimes="0;1" repeatCount="indefinite" dur="1.8666666666666665s" begin="-0.5355213439288711s"></animateTransform>
<g transform="translate(40.97674484064694 179.28212555961608)"><g transform="scale(0.14242243352145556)">
<path d="M1.8,8.9c0.6-1.3,1.2-2.6,1.8-4c0.4-0.8,0.8-1.7,1.3-2.4S6.2,1.2,7.1,1c0.4,0.8,1,1.5,1.1,2.4C8.3,4.1,8,4.9,7.6,5.6 S6.6,6.8,6,7.3C5.6,7.8,5.1,8.2,4.5,8.4C3.7,8.8,2.7,8.6,1.9,9L1.8,8.9z" fill="#f9f9f9" transform="translate(-5 -5)"></path>
</g></g></g><g>
<animateTransform attributeName="transform" type="translate" values="0 0;0 200" keyTimes="0;1" repeatCount="indefinite" dur="1.8666666666666665s" begin="-0.5355213439288711s"></animateTransform>
<g transform="translate(40.97674484064694 379.2821255596161)"><g transform="scale(0.14242243352145556)">
<path d="M1.8,8.9c0.6-1.3,1.2-2.6,1.8-4c0.4-0.8,0.8-1.7,1.3-2.4S6.2,1.2,7.1,1c0.4,0.8,1,1.5,1.1,2.4C8.3,4.1,8,4.9,7.6,5.6 S6.6,6.8,6,7.3C5.6,7.8,5.1,8.2,4.5,8.4C3.7,8.8,2.7,8.6,1.9,9L1.8,8.9z" fill="#f9f9f9" transform="translate(-5 -5)"></path>
</g></g></g><g>
<animateTransform attributeName="transform" type="translate" values="0 0;0 200" keyTimes="0;1" repeatCount="indefinite" dur="5.6s" begin="-1.9795133286632318s"></animateTransform>
<g transform="translate(82.31752470697766 -114.4379279272409)"><g transform="scale(0.3011640698757978)">
<path d="M1,4.7C1,4,1.2,3.4,1.4,2.8C1.6,2.5,1.7,2.1,2,1.9c0.3-0.2,0.6-0.4,0.9-0.5C4.3,0.9,5.8,1,7.3,1.3c0.6,0.2,1.3,0.5,1.6,1.1 C9.1,2.9,9,3.5,8.9,4C8.7,5,8.6,6,8.6,7c0,0.1,0,0.2,0,0.3C8.5,7.4,8.3,7.5,8.2,7.6C7.6,7.8,7.1,8.1,6.5,8.3 C5.9,8.6,5.3,8.9,4.7,8.9c-0.4,0-0.8,0-1.2-0.1C2.7,8.8,1,8.7,1,8.7L1,6L1,4.7z" fill="#fff" transform="translate(-5 -5)"></path>
</g></g></g><g>
<animateTransform attributeName="transform" type="translate" values="0 0;0 200" keyTimes="0;1" repeatCount="indefinite" dur="5.6s" begin="-1.9795133286632318s"></animateTransform>
<g transform="translate(82.31752470697766 85.5620720727591)"><g transform="scale(0.3011640698757978)">
<path d="M1,4.7C1,4,1.2,3.4,1.4,2.8C1.6,2.5,1.7,2.1,2,1.9c0.3-0.2,0.6-0.4,0.9-0.5C4.3,0.9,5.8,1,7.3,1.3c0.6,0.2,1.3,0.5,1.6,1.1 C9.1,2.9,9,3.5,8.9,4C8.7,5,8.6,6,8.6,7c0,0.1,0,0.2,0,0.3C8.5,7.4,8.3,7.5,8.2,7.6C7.6,7.8,7.1,8.1,6.5,8.3 C5.9,8.6,5.3,8.9,4.7,8.9c-0.4,0-0.8,0-1.2-0.1C2.7,8.8,1,8.7,1,8.7L1,6L1,4.7z" fill="#fff" transform="translate(-5 -5)"></path>
</g></g></g><g>
<animateTransform attributeName="transform" type="translate" values="0 0;0 200" keyTimes="0;1" repeatCount="indefinite" dur="5.6s" begin="-1.9795133286632318s"></animateTransform>
<g transform="translate(82.31752470697766 285.56207207275907)"><g transform="scale(0.3011640698757978)">
<path d="M1,4.7C1,4,1.2,3.4,1.4,2.8C1.6,2.5,1.7,2.1,2,1.9c0.3-0.2,0.6-0.4,0.9-0.5C4.3,0.9,5.8,1,7.3,1.3c0.6,0.2,1.3,0.5,1.6,1.1 C9.1,2.9,9,3.5,8.9,4C8.7,5,8.6,6,8.6,7c0,0.1,0,0.2,0,0.3C8.5,7.4,8.3,7.5,8.2,7.6C7.6,7.8,7.1,8.1,6.5,8.3 C5.9,8.6,5.3,8.9,4.7,8.9c-0.4,0-0.8,0-1.2-0.1C2.7,8.8,1,8.7,1,8.7L1,6L1,4.7z" fill="#fff" transform="translate(-5 -5)"></path>
</g></g></g><g>
<animateTransform attributeName="transform" type="translate" values="0 0;0 200" keyTimes="0;1" repeatCount="indefinite" dur="2.8s" begin="-5.080745909356268s"></animateTransform>
<g transform="translate(127.81204264474584 -46.34880523911468)"><g transform="scale(0.9211841029622185)">
<path d="M1,4.7C1,4,1.2,3.4,1.4,2.8C1.6,2.5,1.7,2.1,2,1.9c0.3-0.2,0.6-0.4,0.9-0.5C4.3,0.9,5.8,1,7.3,1.3c0.6,0.2,1.3,0.5,1.6,1.1 C9.1,2.9,9,3.5,8.9,4C8.7,5,8.6,6,8.6,7c0,0.1,0,0.2,0,0.3C8.5,7.4,8.3,7.5,8.2,7.6C7.6,7.8,7.1,8.1,6.5,8.3 C5.9,8.6,5.3,8.9,4.7,8.9c-0.4,0-0.8,0-1.2-0.1C2.7,8.8,1,8.7,1,8.7L1,6L1,4.7z" fill="#eee" transform="translate(-5 -5)"></path>
</g></g></g><g>
<animateTransform attributeName="transform" type="translate" values="0 0;0 200" keyTimes="0;1" repeatCount="indefinite" dur="2.8s" begin="-5.080745909356268s"></animateTransform>
<g transform="translate(127.81204264474584 153.65119476088532)"><g transform="scale(0.9211841029622185)">
<path d="M1,4.7C1,4,1.2,3.4,1.4,2.8C1.6,2.5,1.7,2.1,2,1.9c0.3-0.2,0.6-0.4,0.9-0.5C4.3,0.9,5.8,1,7.3,1.3c0.6,0.2,1.3,0.5,1.6,1.1 C9.1,2.9,9,3.5,8.9,4C8.7,5,8.6,6,8.6,7c0,0.1,0,0.2,0,0.3C8.5,7.4,8.3,7.5,8.2,7.6C7.6,7.8,7.1,8.1,6.5,8.3 C5.9,8.6,5.3,8.9,4.7,8.9c-0.4,0-0.8,0-1.2-0.1C2.7,8.8,1,8.7,1,8.7L1,6L1,4.7z" fill="#eee" transform="translate(-5 -5)"></path>
</g></g></g><g>
<animateTransform attributeName="transform" type="translate" values="0 0;0 200" keyTimes="0;1" repeatCount="indefinite" dur="2.8s" begin="-5.080745909356268s"></animateTransform>
<g transform="translate(127.81204264474584 353.65119476088535)"><g transform="scale(0.9211841029622185)">
<path d="M1,4.7C1,4,1.2,3.4,1.4,2.8C1.6,2.5,1.7,2.1,2,1.9c0.3-0.2,0.6-0.4,0.9-0.5C4.3,0.9,5.8,1,7.3,1.3c0.6,0.2,1.3,0.5,1.6,1.1 C9.1,2.9,9,3.5,8.9,4C8.7,5,8.6,6,8.6,7c0,0.1,0,0.2,0,0.3C8.5,7.4,8.3,7.5,8.2,7.6C7.6,7.8,7.1,8.1,6.5,8.3 C5.9,8.6,5.3,8.9,4.7,8.9c-0.4,0-0.8,0-1.2-0.1C2.7,8.8,1,8.7,1,8.7L1,6L1,4.7z" fill="#eee" transform="translate(-5 -5)"></path>
</g></g></g>
  </pattern>
</defs>
<rect x="0" y="0" width="100%" height="100%" fill="url(#ldp-a76acea940ac18)"></rect></svg>